<svg xmlns="http://www.w3.org/2000/svg" xmlns:svg="http://www.w3.org/2000/svg" id="svg22" width="88.041" height="102.269" fill="none" version="1.1" viewBox="0 0 88.041 102.269"><path id="path20" fill="#f0b90b" d="M 16.993,15.6646 44.021,0 71.049,15.6646 61.112,21.4515 44.021,11.5738 26.929,21.4515 Z M 71.049,35.42 61.112,29.633 44.021,39.511 26.929,29.633 16.993,35.42 v 11.574 l 17.091,9.877 v 19.756 l 9.937,5.787 9.937,-5.787 V 56.871 l 17.091,-9.877 z m 0,31.329 V 55.175 l -9.937,5.787 v 11.574 z m 7.055,4.091 -17.091,9.877 V 92.291 L 88.041,76.627 V 45.298 l -9.937,5.786 z m -9.937,-45.298 9.937,5.787 v 11.574 l 9.937,-5.787 V 25.542 L 78.104,19.7553 Z M 34.084,84.908 v 11.574 l 9.937,5.787 9.937,-5.787 V 84.908 l -9.937,5.787 z M 16.993,66.749 26.929,72.536 V 60.962 l -9.936,-5.787 z m 17.091,-41.207 9.937,5.787 9.937,-5.787 -9.937,-5.7867 z M 9.937,31.329 19.874,25.542 9.937,19.7553 0,25.542 v 11.574 l 9.937,5.787 z m 0,19.755 L 0,45.298 V 76.627 L 27.029,92.291 V 80.717 L 9.937,70.84 Z"/></svg>