<svg xmlns="http://www.w3.org/2000/svg" xmlns:svg="http://www.w3.org/2000/svg" id="图层_1" width="102.4" height="102.4" x="0" y="0" version="1.1" viewBox="0 0 102.4 102.4" xml:space="preserve"><style id="style2" type="text/css">.st1{fill:#fff}.st2{fill:url(#SVGID_1_)}</style><linearGradient id="SVGID_1_" x1="52.043" x2="142.941" y1="52.044" y2="142.943" gradientTransform="translate(-48.8,-48.8)" gradientUnits="userSpaceOnUse"><stop style="stop-color:#66ba74" id="stop4" offset="0"/><stop style="stop-color:#18a34a" id="stop6" offset=".5"/><stop style="stop-color:#10873d" id="stop8" offset="1"/></linearGradient><path id="path11" d="M 51.2,0 C 23.04,0 0,23.04 0,51.2 v 0 c 0,28.16 23.04,51.2 51.2,51.2 v 0 c 28.16,0 51.2,-23.04 51.2,-51.2 v 0 C 102.4,23.04 79.36,0 51.2,0 Z" class="st2" style="fill:url(#SVGID_1_)"/><g id="g29" transform="translate(-48.8,-48.8)"><g id="g15"><path id="path13" d="m 87.42,84.06 c 0.04,-0.02 0.07,-0.04 0.11,-0.05 0.41,-0.19 0.82,-0.37 1.23,-0.53 v -8.09 c 0,-1.47 -1.19,-2.67 -2.66,-2.67 H 75.07 v 23.22 c 2.65,-5.13 6.95,-9.35 12.35,-11.88 z" class="st1"/></g><g id="g19"><path id="path17" d="m 98.65,98.2 c 0.03,0 0.06,0 0.09,0 h 2.37 c 3.57,0 6.46,-2.89 6.46,-6.46 v -6.92 c -1.33,-0.23 -7.41,-0.36 -8.82,-0.36 -3.6,0 -7.02,0.8 -10.08,2.24 -7.61,3.56 -13.01,11.04 -13.61,19.84 -0.04,0.55 -0.06,1.1 -0.06,1.66 0,0.56 0.02,1.11 0.06,1.66 0,0 0,0 0,0 v 14.76 c 0,1.47 1.19,2.66 2.66,2.66 h 11.02 v 0 h 0.01 c 0,0 0,-5.6 0,-10.93 v -8.28 c 0.01,-5.46 4.44,-9.87 9.9,-9.87 z" class="st1"/></g><g id="g23"><path id="path21" d="m 112.6,115.94 c -0.04,0.02 -0.07,0.04 -0.11,0.05 -0.41,0.19 -0.82,0.37 -1.23,0.53 v 8.09 c 0,1.47 1.19,2.67 2.66,2.67 h 11.02 v -23.22 c -2.65,5.13 -6.95,9.35 -12.34,11.88 z" class="st1"/></g><g id="g27"><path id="path25" d="m 124.94,90.14 c 0,0 0,0 0,0 V 75.38 c 0,-1.47 -1.19,-2.66 -2.66,-2.66 h -0.01 c 0,0 0,0 0,0 h -11.02 c 0,0 0,14.96 0,19.21 -0.01,5.46 -4.44,9.87 -9.89,9.87 0,0 0,0 0,0 v 0 c -0.02,0 -0.05,0 -0.07,0 h -2.4 c -3.57,0 -6.46,2.89 -6.46,6.46 v 6.92 c 1.33,0.23 7.41,0.36 8.82,0.36 0.16,0 0.31,0 0.47,-0.01 3.41,-0.06 6.65,-0.85 9.56,-2.21 0.02,-0.01 0.04,-0.02 0.06,-0.03 7.61,-3.56 13.01,-11.04 13.61,-19.84 0.04,-0.55 0.06,-1.1 0.06,-1.66 -0.01,-0.55 -0.03,-1.1 -0.07,-1.65 z" class="st1"/></g></g></svg>